<svg width="232" height="22" viewBox="0 0 232 22" fill="none" xmlns="http://www.w3.org/2000/svg">
<path d="M11.6607 17.0195L10.0507 12.2815H3.5647L1.9547 17.0195H-0.000296831L5.6117 0.965531H8.0727L13.6847 17.0195H11.6607ZM6.8537 2.75953H6.7387L4.0247 10.5795H9.5677L6.8537 2.75953ZM15.7451 17.0195V15.4095H17.9991V2.57553H15.7451V0.965531H22.1851V2.57553H19.9311V15.4095H22.1851V17.0195H15.7451ZM35.9766 17.2955C34.6733 17.2955 33.5616 17.0502 32.6416 16.5595C31.7216 16.0535 30.9396 15.3635 30.2956 14.4895L31.7216 13.2935C32.2889 14.0449 32.9176 14.6199 33.6076 15.0185C34.2976 15.4019 35.1103 15.5935 36.0456 15.5935C37.1956 15.5935 38.0696 15.3175 38.6676 14.7655C39.2809 14.2135 39.5876 13.4775 39.5876 12.5575C39.5876 11.7909 39.3576 11.2005 38.8976 10.7865C38.4376 10.3725 37.6786 10.0429 36.6206 9.79753L35.3096 9.49853C33.8376 9.1612 32.7106 8.6552 31.9286 7.98053C31.1619 7.29053 30.7786 6.32453 30.7786 5.08253C30.7786 4.3772 30.9089 3.74853 31.1696 3.19653C31.4303 2.64453 31.7906 2.18453 32.2506 1.81653C32.7259 1.44853 33.2856 1.17253 33.9296 0.988531C34.5889 0.789197 35.3096 0.68953 36.0916 0.68953C37.3029 0.68953 38.3379 0.911864 39.1966 1.35653C40.0706 1.8012 40.8066 2.45286 41.4046 3.31153L39.9556 4.36953C39.5109 3.7562 38.9743 3.2732 38.3456 2.92053C37.7169 2.56786 36.9349 2.39153 35.9996 2.39153C34.9723 2.39153 34.1596 2.61386 33.5616 3.05853C32.9789 3.48786 32.6876 4.13953 32.6876 5.01353C32.6876 5.7802 32.9329 6.36286 33.4236 6.76153C33.9296 7.14486 34.6886 7.45153 35.7006 7.68153L37.0116 7.98053C38.5909 8.3332 39.7333 8.86986 40.4386 9.59053C41.1439 10.3112 41.4966 11.2695 41.4966 12.4655C41.4966 13.2015 41.3663 13.8685 41.1056 14.4665C40.8603 15.0645 40.4999 15.5705 40.0246 15.9845C39.5493 16.3985 38.9666 16.7205 38.2766 16.9505C37.6019 17.1805 36.8353 17.2955 35.9766 17.2955ZM49.2249 17.2955C48.3969 17.2955 47.6532 17.1499 46.9939 16.8585C46.3345 16.5672 45.7749 16.1532 45.3149 15.6165C44.8702 15.0799 44.5252 14.4282 44.2799 13.6615C44.0499 12.8949 43.9349 12.0362 43.9349 11.0855C43.9349 10.1349 44.0499 9.2762 44.2799 8.50953C44.5252 7.74286 44.8702 7.0912 45.3149 6.55453C45.7749 6.01786 46.3345 5.60386 46.9939 5.31253C47.6532 5.0212 48.3969 4.87553 49.2249 4.87553C50.4055 4.87553 51.3485 5.1362 52.0539 5.65753C52.7745 6.16353 53.3112 6.83053 53.6639 7.65853L52.1229 8.44053C51.9082 7.8272 51.5555 7.35186 51.0649 7.01453C50.5742 6.6772 49.9609 6.50853 49.2249 6.50853C48.6729 6.50853 48.1899 6.60053 47.7759 6.78453C47.3619 6.9532 47.0169 7.19853 46.7409 7.52053C46.4649 7.8272 46.2579 8.20286 46.1199 8.64753C45.9819 9.07686 45.9129 9.5522 45.9129 10.0735V12.0975C45.9129 13.1402 46.1889 13.9989 46.7409 14.6735C47.3082 15.3329 48.1362 15.6625 49.2249 15.6625C50.7122 15.6625 51.7855 14.9725 52.4449 13.5925L53.7789 14.4895C53.3955 15.3482 52.8205 16.0305 52.0539 16.5365C51.3025 17.0425 50.3595 17.2955 49.2249 17.2955ZM65.1612 17.0195C64.4712 17.0195 63.9729 16.8355 63.6662 16.4675C63.3749 16.0995 63.1909 15.6395 63.1142 15.0875H62.9992C62.7386 15.8235 62.3092 16.3755 61.7112 16.7435C61.1132 17.1115 60.4002 17.2955 59.5722 17.2955C58.3149 17.2955 57.3336 16.9735 56.6282 16.3295C55.9382 15.6855 55.5932 14.8115 55.5932 13.7075C55.5932 12.5882 55.9996 11.7295 56.8122 11.1315C57.6402 10.5335 58.9206 10.2345 60.6532 10.2345H62.9992V9.06153C62.9992 8.2182 62.7692 7.5742 62.3092 7.12953C61.8492 6.68486 61.1439 6.46253 60.1932 6.46253C59.4726 6.46253 58.8669 6.62353 58.3762 6.94553C57.9009 7.26753 57.5022 7.69686 57.1802 8.23353L56.0762 7.19853C56.3982 6.55453 56.9119 6.0102 57.6172 5.56553C58.3226 5.10553 59.2119 4.87553 60.2852 4.87553C61.7266 4.87553 62.8459 5.2282 63.6432 5.93353C64.4406 6.63886 64.8392 7.6202 64.8392 8.87753V15.4095H66.1962V17.0195H65.1612ZM59.8712 15.7315C60.3312 15.7315 60.7529 15.6779 61.1362 15.5705C61.5196 15.4632 61.8492 15.3099 62.1252 15.1105C62.4012 14.9112 62.6159 14.6812 62.7692 14.4205C62.9226 14.1599 62.9992 13.8762 62.9992 13.5695V11.6145H60.5612C59.5032 11.6145 58.7289 11.7679 58.2382 12.0745C57.7629 12.3812 57.5252 12.8259 57.5252 13.4085V13.8915C57.5252 14.4742 57.7322 14.9265 58.1462 15.2485C58.5756 15.5705 59.1506 15.7315 59.8712 15.7315ZM70.9374 17.0195C70.2934 17.0195 69.8027 16.8432 69.4654 16.4905C69.1434 16.1225 68.9824 15.6625 68.9824 15.1105V-0.000468969H70.8224V15.4095H72.5704V17.0195H70.9374ZM84.034 17.0195C83.344 17.0195 82.8457 16.8355 82.539 16.4675C82.2477 16.0995 82.0637 15.6395 81.987 15.0875H81.872C81.6113 15.8235 81.182 16.3755 80.584 16.7435C79.986 17.1115 79.273 17.2955 78.445 17.2955C77.1877 17.2955 76.2063 16.9735 75.501 16.3295C74.811 15.6855 74.466 14.8115 74.466 13.7075C74.466 12.5882 74.8723 11.7295 75.685 11.1315C76.513 10.5335 77.7933 10.2345 79.526 10.2345H81.872V9.06153C81.872 8.2182 81.642 7.5742 81.182 7.12953C80.722 6.68486 80.0167 6.46253 79.066 6.46253C78.3453 6.46253 77.7397 6.62353 77.249 6.94553C76.7737 7.26753 76.375 7.69686 76.053 8.23353L74.949 7.19853C75.271 6.55453 75.7847 6.0102 76.49 5.56553C77.1953 5.10553 78.0847 4.87553 79.158 4.87553C80.5993 4.87553 81.7187 5.2282 82.516 5.93353C83.3133 6.63886 83.712 7.6202 83.712 8.87753V15.4095H85.069V17.0195H84.034ZM78.744 15.7315C79.204 15.7315 79.6257 15.6779 80.009 15.5705C80.3923 15.4632 80.722 15.3099 80.998 15.1105C81.274 14.9112 81.4887 14.6812 81.642 14.4205C81.7953 14.1599 81.872 13.8762 81.872 13.5695V11.6145H79.434C78.376 11.6145 77.6017 11.7679 77.111 12.0745C76.6357 12.3812 76.398 12.8259 76.398 13.4085V13.8915C76.398 14.4742 76.605 14.9265 77.019 15.2485C77.4483 15.5705 78.0233 15.7315 78.744 15.7315ZM87.8551 -0.000468969H89.6951V7.08353H89.7871C90.0938 6.3322 90.5384 5.7802 91.1211 5.42753C91.7191 5.05953 92.4321 4.87553 93.2601 4.87553C93.9961 4.87553 94.6631 5.0212 95.2611 5.31253C95.8591 5.60386 96.3651 6.01786 96.7791 6.55453C97.2085 7.0912 97.5305 7.74286 97.7451 8.50953C97.9751 9.2762 98.0901 10.1349 98.0901 11.0855C98.0901 12.0362 97.9751 12.8949 97.7451 13.6615C97.5305 14.4282 97.2085 15.0799 96.7791 15.6165C96.3651 16.1532 95.8591 16.5672 95.2611 16.8585C94.6631 17.1499 93.9961 17.2955 93.2601 17.2955C91.6501 17.2955 90.4924 16.5595 89.7871 15.0875H89.6951V17.0195H87.8551V-0.000468969ZM92.7541 15.6395C93.7968 15.6395 94.6171 15.3175 95.2151 14.6735C95.8131 14.0142 96.1121 13.1555 96.1121 12.0975V10.0735C96.1121 9.01553 95.8131 8.16453 95.2151 7.52053C94.6171 6.8612 93.7968 6.53153 92.7541 6.53153C92.3401 6.53153 91.9414 6.59286 91.5581 6.71553C91.1901 6.82286 90.8681 6.9762 90.5921 7.17553C90.3161 7.37486 90.0938 7.6202 89.9251 7.91153C89.7718 8.18753 89.6951 8.48653 89.6951 8.80853V13.2245C89.6951 13.6079 89.7718 13.9529 89.9251 14.2595C90.0938 14.5509 90.3161 14.8039 90.5921 15.0185C90.8681 15.2179 91.1901 15.3712 91.5581 15.4785C91.9414 15.5859 92.3401 15.6395 92.7541 15.6395ZM102.277 2.36853C101.878 2.36853 101.587 2.27653 101.403 2.09253C101.234 1.8932 101.15 1.6402 101.15 1.33353V1.03453C101.15 0.727864 101.234 0.48253 101.403 0.29853C101.587 0.0991973 101.878 -0.000468969 102.277 -0.000468969C102.676 -0.000468969 102.959 0.0991973 103.128 0.29853C103.312 0.48253 103.404 0.727864 103.404 1.03453V1.33353C103.404 1.6402 103.312 1.8932 103.128 2.09253C102.959 2.27653 102.676 2.36853 102.277 2.36853ZM101.357 5.15153H103.197V17.0195H101.357V5.15153ZM109.222 17.0195C108.578 17.0195 108.087 16.8432 107.75 16.4905C107.428 16.1225 107.267 15.6625 107.267 15.1105V-0.000468969H109.107V15.4095H110.855V17.0195H109.222ZM114.614 2.36853C114.215 2.36853 113.924 2.27653 113.74 2.09253C113.571 1.8932 113.487 1.6402 113.487 1.33353V1.03453C113.487 0.727864 113.571 0.48253 113.74 0.29853C113.924 0.0991973 114.215 -0.000468969 114.614 -0.000468969C115.012 -0.000468969 115.296 0.0991973 115.465 0.29853C115.649 0.48253 115.741 0.727864 115.741 1.03453V1.33353C115.741 1.6402 115.649 1.8932 115.465 2.09253C115.296 2.27653 115.012 2.36853 114.614 2.36853ZM113.694 5.15153H115.534V17.0195H113.694V5.15153ZM122.226 17.0195C121.582 17.0195 121.091 16.8432 120.754 16.4905C120.432 16.1225 120.271 15.6472 120.271 15.0645V6.76153H118.316V5.15153H119.42C119.818 5.15153 120.087 5.07486 120.225 4.92153C120.378 4.75286 120.455 4.4692 120.455 4.07053V1.86253H122.111V5.15153H124.71V6.76153H122.111V15.4095H124.526V17.0195H122.226ZM135.141 5.15153H136.958L131.645 19.7795C131.507 20.1322 131.369 20.4235 131.231 20.6535C131.093 20.8989 130.924 21.0905 130.725 21.2285C130.526 21.3665 130.273 21.4662 129.966 21.5275C129.675 21.5889 129.314 21.6195 128.885 21.6195H127.942V20.0095H129.805L130.702 17.4795L126.263 5.15153H128.103L130.955 13.2245L131.507 15.1565H131.622L132.266 13.2245L135.141 5.15153ZM145.244 17.0195V0.965531H151.638C153.079 0.965531 154.183 1.37953 154.95 2.20753C155.732 3.0202 156.123 4.13953 156.123 5.56553C156.123 6.99153 155.732 8.11853 154.95 8.94653C154.183 9.7592 153.079 10.1655 151.638 10.1655H147.176V17.0195H145.244ZM147.176 8.46353H151.638C152.405 8.46353 152.995 8.2642 153.409 7.86553C153.838 7.46686 154.053 6.89953 154.053 6.16353V4.96753C154.053 4.23153 153.838 3.6642 153.409 3.26553C152.995 2.86686 152.405 2.66753 151.638 2.66753H147.176V8.46353ZM161.123 17.0195C160.479 17.0195 159.989 16.8432 159.651 16.4905C159.329 16.1225 159.168 15.6625 159.168 15.1105V-0.000468969H161.008V15.4095H162.756V17.0195H161.123ZM174.22 17.0195C173.53 17.0195 173.032 16.8355 172.725 16.4675C172.434 16.0995 172.25 15.6395 172.173 15.0875H172.058C171.797 15.8235 171.368 16.3755 170.77 16.7435C170.172 17.1115 169.459 17.2955 168.631 17.2955C167.374 17.2955 166.392 16.9735 165.687 16.3295C164.997 15.6855 164.652 14.8115 164.652 13.7075C164.652 12.5882 165.058 11.7295 165.871 11.1315C166.699 10.5335 167.979 10.2345 169.712 10.2345H172.058V9.06153C172.058 8.2182 171.828 7.5742 171.368 7.12953C170.908 6.68486 170.203 6.46253 169.252 6.46253C168.531 6.46253 167.926 6.62353 167.435 6.94553C166.96 7.26753 166.561 7.69686 166.239 8.23353L165.135 7.19853C165.457 6.55453 165.971 6.0102 166.676 5.56553C167.381 5.10553 168.271 4.87553 169.344 4.87553C170.785 4.87553 171.905 5.2282 172.702 5.93353C173.499 6.63886 173.898 7.6202 173.898 8.87753V15.4095H175.255V17.0195H174.22ZM168.93 15.7315C169.39 15.7315 169.812 15.6779 170.195 15.5705C170.578 15.4632 170.908 15.3099 171.184 15.1105C171.46 14.9112 171.675 14.6812 171.828 14.4205C171.981 14.1599 172.058 13.8762 172.058 13.5695V11.6145H169.62C168.562 11.6145 167.788 11.7679 167.297 12.0745C166.822 12.3812 166.584 12.8259 166.584 13.4085V13.8915C166.584 14.4742 166.791 14.9265 167.205 15.2485C167.634 15.5705 168.209 15.7315 168.93 15.7315ZM180.663 17.0195C180.019 17.0195 179.528 16.8432 179.191 16.4905C178.869 16.1225 178.708 15.6472 178.708 15.0645V6.76153H176.753V5.15153H177.857C178.256 5.15153 178.524 5.07486 178.662 4.92153C178.815 4.75286 178.892 4.4692 178.892 4.07053V1.86253H180.548V5.15153H183.147V6.76153H180.548V15.4095H182.963V17.0195H180.663ZM186.684 6.76153H184.752V5.15153H186.684V2.75953C186.684 1.93153 186.899 1.26453 187.328 0.758531C187.757 0.252531 188.409 -0.000468969 189.283 -0.000468969H191.077V1.60953H188.524V5.15153H191.077V6.76153H188.524V17.0195H186.684V6.76153ZM198.052 17.2955C197.255 17.2955 196.526 17.1499 195.867 16.8585C195.208 16.5672 194.64 16.1532 194.165 15.6165C193.705 15.0645 193.345 14.4129 193.084 13.6615C192.823 12.8949 192.693 12.0362 192.693 11.0855C192.693 10.1502 192.823 9.2992 193.084 8.53253C193.345 7.76586 193.705 7.1142 194.165 6.57753C194.64 6.02553 195.208 5.60386 195.867 5.31253C196.526 5.0212 197.255 4.87553 198.052 4.87553C198.849 4.87553 199.57 5.0212 200.214 5.31253C200.873 5.60386 201.441 6.02553 201.916 6.57753C202.391 7.1142 202.759 7.76586 203.02 8.53253C203.281 9.2992 203.411 10.1502 203.411 11.0855C203.411 12.0362 203.281 12.8949 203.02 13.6615C202.759 14.4129 202.391 15.0645 201.916 15.6165C201.441 16.1532 200.873 16.5672 200.214 16.8585C199.57 17.1499 198.849 17.2955 198.052 17.2955ZM198.052 15.6625C199.049 15.6625 199.861 15.3559 200.49 14.7425C201.119 14.1292 201.433 13.1939 201.433 11.9365V10.2345C201.433 8.9772 201.119 8.04186 200.49 7.42853C199.861 6.8152 199.049 6.50853 198.052 6.50853C197.055 6.50853 196.243 6.8152 195.614 7.42853C194.985 8.04186 194.671 8.9772 194.671 10.2345V11.9365C194.671 13.1939 194.985 14.1292 195.614 14.7425C196.243 15.3559 197.055 15.6625 198.052 15.6625ZM206.597 17.0195V5.15153H208.437V7.33653H208.552C208.767 6.7692 209.15 6.2632 209.702 5.81853C210.254 5.37386 211.013 5.15153 211.979 5.15153H212.692V6.99153H211.611C210.615 6.99153 209.833 7.1832 209.265 7.56653C208.713 7.93453 208.437 8.4022 208.437 8.96953V17.0195H206.597ZM215.203 17.0195V5.15153H217.043V7.08353H217.135C217.273 6.77686 217.426 6.4932 217.595 6.23253C217.779 5.95653 217.993 5.71886 218.239 5.51953C218.499 5.3202 218.798 5.16686 219.136 5.05953C219.473 4.93686 219.872 4.87553 220.332 4.87553C221.114 4.87553 221.834 5.0672 222.494 5.45053C223.153 5.81853 223.644 6.43186 223.966 7.29053H224.012C224.226 6.64653 224.625 6.08686 225.208 5.61153C225.806 5.12086 226.611 4.87553 227.623 4.87553C228.834 4.87553 229.777 5.2742 230.452 6.07153C231.142 6.85353 231.487 7.9652 231.487 9.40653V17.0195H229.647V9.72853C229.647 8.67053 229.44 7.8732 229.026 7.33653C228.612 6.79986 227.952 6.53153 227.048 6.53153C226.68 6.53153 226.327 6.57753 225.99 6.66953C225.668 6.76153 225.376 6.89953 225.116 7.08353C224.855 7.26753 224.648 7.5052 224.495 7.79653C224.341 8.07253 224.265 8.4022 224.265 8.78553V17.0195H222.425V9.72853C222.425 8.67053 222.218 7.8732 221.804 7.33653C221.39 6.79986 220.746 6.53153 219.872 6.53153C219.504 6.53153 219.151 6.57753 218.814 6.66953C218.476 6.76153 218.177 6.89953 217.917 7.08353C217.656 7.26753 217.441 7.5052 217.273 7.79653C217.119 8.07253 217.043 8.4022 217.043 8.78553V17.0195H215.203Z" fill="#616161"/>
</svg>
