<svg width="1728" height="1061" viewBox="0 0 1728 1061" fill="none" xmlns="http://www.w3.org/2000/svg">
<g opacity="0.5">
<mask id="mask0_250_6332" style="mask-type:alpha" maskUnits="userSpaceOnUse" x="-364" y="-433" width="2314" height="1494">
<path d="M923.63 208.318C923.63 382.473 808.483 523.654 666.441 523.654C524.4 523.654 -363.06 -87.1758 -363.06 -261.331C-363.06 -435.486 912.047 -195.729 1054.09 -195.729C1196.13 -195.729 923.63 34.1628 923.63 208.318Z" fill="url(#paint0_linear_250_6332)"/>
<path d="M1315.27 208.796C1698.52 554.941 1521.48 380.989 1850.67 372.225C1902.31 382.173 1989.97 382.646 1927.51 304.956C1849.44 207.845 1874.6 139.254 1777.03 33.4502C1679.46 -72.3534 1620.04 -179.848 1472.74 -348.126C1325.43 -516.404 1314.1 -377.687 1148.03 -390.837C981.965 -403.987 1057.71 -383.105 828.579 -138.94C599.45 105.224 932.019 -137.349 1315.27 208.796Z" fill="#D9D9D9"/>
</mask>
<g mask="url(#mask0_250_6332)">
<line x1="50.0682" y1="-226.696" x2="50.0682" y2="1153.92" stroke="#5999F8" stroke-width="1.49095"/>
<line x1="813.439" y1="-226.696" x2="813.439" y2="1153.92" stroke="#5999F8" stroke-width="1.49095"/>
<line x1="431.753" y1="-226.697" x2="431.753" y2="1153.92" stroke="#5999F8" stroke-width="1.49095"/>
<line x1="1195.12" y1="-226.696" x2="1195.12" y2="1153.92" stroke="#5999F8" stroke-width="1.49095"/>
<line x1="1576.8" y1="-226.696" x2="1576.8" y2="1153.92" stroke="#5999F8" stroke-width="1.49095"/>
<line x1="240.911" y1="-226.696" x2="240.91" y2="1153.92" stroke="#5999F8" stroke-width="1.49095"/>
<line x1="1004.28" y1="-226.696" x2="1004.28" y2="1153.92" stroke="#5999F8" stroke-width="1.49095"/>
<line x1="622.597" y1="-226.696" x2="622.597" y2="1153.92" stroke="#5999F8" stroke-width="1.49095"/>
<line x1="1385.96" y1="-226.697" x2="1385.96" y2="1153.92" stroke="#5999F8" stroke-width="1.49095"/>
<line x1="145.493" y1="-226.696" x2="145.492" y2="1153.92" stroke="#5999F8" stroke-width="1.49095"/>
<line x1="908.857" y1="-226.697" x2="908.857" y2="1153.92" stroke="#5999F8" stroke-width="1.49095"/>
<line x1="527.173" y1="-226.696" x2="527.173" y2="1153.92" stroke="#5999F8" stroke-width="1.49095"/>
<line x1="1290.54" y1="-226.696" x2="1290.54" y2="1153.92" stroke="#5999F8" stroke-width="1.49095"/>
<line x1="1672.22" y1="-226.696" x2="1672.22" y2="1153.92" stroke="#5999F8" stroke-width="1.49095"/>
<line x1="336.335" y1="-226.696" x2="336.335" y2="1153.92" stroke="#5999F8" stroke-width="1.49095"/>
<line x1="1099.7" y1="-226.696" x2="1099.7" y2="1153.92" stroke="#5999F8" stroke-width="1.49095"/>
<line x1="718.015" y1="-226.696" x2="718.015" y2="1153.92" stroke="#5999F8" stroke-width="1.49095"/>
<line x1="1481.38" y1="-226.696" x2="1481.38" y2="1153.92" stroke="#5999F8" stroke-width="1.49095"/>
<line x1="-11.1929" y1="569.875" x2="1776.46" y2="569.875" stroke="#5999F8" stroke-width="1.49095"/>
<line x1="-11.1929" y1="951.558" x2="1776.46" y2="951.558" stroke="#5999F8" stroke-width="1.49095"/>
<line x1="-11.1929" y1="188.192" x2="1776.46" y2="188.192" stroke="#5999F8" stroke-width="1.49095"/>
<line x1="-11.1929" y1="379.032" x2="1776.46" y2="379.032" stroke="#5999F8" stroke-width="1.49095"/>
<line x1="-11.1929" y1="760.714" x2="1776.46" y2="760.714" stroke="#5999F8" stroke-width="1.49095"/>
<line x1="-11.1929" y1="474.453" x2="1776.46" y2="474.453" stroke="#5999F8" stroke-width="1.49095"/>
<line x1="-11.1929" y1="856.136" x2="1776.46" y2="856.136" stroke="#5999F8" stroke-width="1.49095"/>
<line x1="-11.1929" y1="92.7703" x2="1776.46" y2="92.7703" stroke="#5999F8" stroke-width="1.49095"/>
<line x1="-11.1929" y1="1046.98" x2="1776.46" y2="1046.98" stroke="#5999F8" stroke-width="1.49095"/>
<line x1="-11.1929" y1="283.61" x2="1776.46" y2="283.61" stroke="#5999F8" stroke-width="1.49095"/>
<line x1="-11.1929" y1="665.296" x2="1776.46" y2="665.296" stroke="#5999F8" stroke-width="1.49095"/>
</g>
</g>
<defs>
<linearGradient id="paint0_linear_250_6332" x1="251.211" y1="-174.11" x2="788.699" y2="112.152" gradientUnits="userSpaceOnUse">
<stop stop-color="white"/>
<stop offset="1" stop-color="white" stop-opacity="0"/>
</linearGradient>
</defs>
</svg>
