<svg width="25" height="24" viewBox="0 0 25 24" fill="none" xmlns="http://www.w3.org/2000/svg">
<path d="M9.20898 0.558594H16.6533L24.2793 8.18457V20.6514C24.2792 22.1925 23.0295 23.4414 21.4883 23.4414H9.20898C7.66789 23.4413 6.41906 22.1925 6.41895 20.6514V3.34863C6.41906 1.80754 7.66789 0.558704 9.20898 0.558594Z" fill="#EEF1F7" stroke="#CBD0DC" stroke-width="1.11628"/>
<rect y="10.6055" width="16.7442" height="9.76744" rx="1.95349" fill="#D82042"/>
<path d="M2.77539 17.8614V13.1934H4.4393C4.80248 13.1934 5.10335 13.2595 5.34192 13.3917C5.58049 13.5239 5.75904 13.7047 5.87756 13.9341C5.99609 14.1621 6.05535 14.4189 6.05535 14.7046C6.05535 14.9918 5.99533 15.2501 5.87529 15.4795C5.75676 15.7075 5.57745 15.8883 5.33736 16.022C5.09879 16.1542 4.79868 16.2203 4.43703 16.2203H3.2928V15.6231H4.3732C4.60266 15.6231 4.7888 15.5836 4.93164 15.5046C5.07448 15.4241 5.17933 15.3147 5.24619 15.1764C5.31305 15.0381 5.34648 14.8808 5.34648 14.7046C5.34648 14.5283 5.31305 14.3718 5.24619 14.235C5.17933 14.0983 5.07372 13.9911 4.92936 13.9136C4.78652 13.8361 4.5981 13.7974 4.36409 13.7974H3.4797V17.8614H2.77539Z" fill="white"/>
<path d="M8.39224 17.8614H6.88104V13.1934H8.44011C8.89749 13.1934 9.2903 13.2868 9.61852 13.4737C9.94675 13.6591 10.1982 13.9258 10.373 14.2738C10.5493 14.6202 10.6374 15.0358 10.6374 15.5206C10.6374 16.0068 10.5485 16.4247 10.3707 16.7742C10.1944 17.1237 9.93915 17.3927 9.60485 17.5811C9.27054 17.768 8.86634 17.8614 8.39224 17.8614ZM7.58536 17.246H8.35349C8.70907 17.246 9.00462 17.1792 9.24015 17.0454C9.47568 16.9102 9.65195 16.7149 9.76896 16.4596C9.88596 16.2028 9.94447 15.8898 9.94447 15.5206C9.94447 15.1543 9.88596 14.8436 9.76896 14.5883C9.65347 14.333 9.481 14.1393 9.25155 14.0071C9.0221 13.8749 8.73718 13.8088 8.3968 13.8088H7.58536V17.246Z" fill="white"/>
<path d="M11.5132 17.8614V13.1934H14.408V13.7997H12.2175V15.222H14.2006V15.826H12.2175V17.8614H11.5132Z" fill="white"/>
</svg>
