<svg xmlns="http://www.w3.org/2000/svg" width="40" height="48" viewBox="0 0 40 48" fill="none">
  <!-- Page body -->
  <path d="M4 4C4 1.79086 5.79086 0 8 0H26L36 10V44C36 46.2091 34.2091 48 32 48H8C5.79086 48 4 46.2091 4 44V4Z" fill="#E8F0FE"/>
  <!-- Folded corner -->
  <path d="M26 0L36 10H30C27.7909 10 26 8.20914 26 6V0Z" fill="#A4C4F4"/>
  <!-- Blue banner -->
  <rect x="4" y="28" width="32" height="16" fill="#2B579A"/>
  <!-- DOC text -->
  <text x="20" y="40" font-family="Arial, sans-serif" font-size="9" font-weight="bold" fill="#FFFFFF" text-anchor="middle">DOC</text>
  <!-- Document lines -->
  <rect x="10" y="14" width="16" height="2" rx="1" fill="#2B579A"/>
  <rect x="10" y="19" width="12" height="2" rx="1" fill="#2B579A"/>
  <rect x="10" y="24" width="14" height="2" rx="1" fill="#2B579A"/>
</svg>
