<svg width="30" height="30" viewBox="0 0 30 30" fill="none" xmlns="http://www.w3.org/2000/svg">
<path d="M6.63469 25.625C6.00323 25.625 5.46875 25.4062 5.03125 24.9688C4.59375 24.5312 4.375 23.9968 4.375 23.3653V6.63469C4.375 6.00323 4.59375 5.46875 5.03125 5.03125C5.46875 4.59375 6.00323 4.375 6.63469 4.375H23.3653C23.9968 4.375 24.5312 4.59375 24.9688 5.03125C25.4062 5.46875 25.625 6.00323 25.625 6.63469V23.3653C25.625 23.9968 25.4062 24.5312 24.9688 24.9688C24.5312 25.4062 23.9968 25.625 23.3653 25.625H6.63469ZM15 23.75H23.3653C23.4616 23.75 23.5497 23.7099 23.6297 23.6297C23.7099 23.5497 23.75 23.4616 23.75 23.3653V6.63469C23.75 6.53844 23.7099 6.45031 23.6297 6.37031C23.5497 6.2901 23.4616 6.25 23.3653 6.25H15V23.75Z" fill="#424242"/>
</svg>
