<svg width="109" height="29" viewBox="0 0 109 29" fill="none" xmlns="http://www.w3.org/2000/svg">
<path d="M3.35979 28.4H-0.000214756V0.480024H11.1198C13.5731 0.480024 15.4798 1.16002 16.8398 2.52002C18.2265 3.88002 18.9198 5.84002 18.9198 8.40002C18.9198 10.4534 18.4398 12.1467 17.4798 13.48C16.5465 14.7867 15.1598 15.6534 13.3198 16.08L19.7198 28.4H15.9198L9.87979 16.4H3.35979V28.4ZM11.1198 13.52C12.4531 13.52 13.4798 13.1734 14.1998 12.48C14.9465 11.7867 15.3198 10.8 15.3198 9.52002V7.44002C15.3198 6.16002 14.9465 5.17336 14.1998 4.48002C13.4798 3.78669 12.4531 3.44002 11.1198 3.44002H3.35979V13.52H11.1198ZM75.5464 28.88C73.2797 28.88 71.3464 28.4534 69.7464 27.6C68.1464 26.72 66.7864 25.52 65.6664 24L68.1464 21.92C69.133 23.2267 70.2264 24.2267 71.4264 24.92C72.6264 25.5867 74.0397 25.92 75.6664 25.92C77.6664 25.92 79.1864 25.44 80.2264 24.48C81.293 23.52 81.8264 22.24 81.8264 20.64C81.8264 19.3067 81.4264 18.28 80.6264 17.56C79.8264 16.84 78.5064 16.2667 76.6664 15.84L74.3864 15.32C71.8264 14.7334 69.8664 13.8534 68.5064 12.68C67.173 11.48 66.5064 9.80002 66.5064 7.64002C66.5064 6.41336 66.733 5.32002 67.1864 4.36002C67.6397 3.40002 68.2664 2.60002 69.0664 1.96002C69.893 1.32002 70.8664 0.840022 71.9864 0.520023C73.133 0.173356 74.3864 2.28882e-05 75.7464 2.28882e-05C77.853 2.28882e-05 79.653 0.386689 81.1464 1.16002C82.6664 1.93336 83.9464 3.06669 84.9864 4.56002L82.4664 6.40002C81.693 5.33336 80.7597 4.49336 79.6664 3.88002C78.573 3.26669 77.213 2.96002 75.5864 2.96002C73.7997 2.96002 72.3864 3.34669 71.3464 4.12002C70.333 4.86669 69.8264 6.00002 69.8264 7.52002C69.8264 8.85336 70.253 9.86669 71.1064 10.56C71.9864 11.2267 73.3064 11.76 75.0664 12.16L77.3464 12.68C80.093 13.2934 82.0797 14.2267 83.3064 15.48C84.533 16.7334 85.1464 18.4 85.1464 20.48C85.1464 21.76 84.9197 22.92 84.4664 23.96C84.0397 25 83.413 25.88 82.5864 26.6C81.7597 27.32 80.7464 27.88 79.5464 28.28C78.373 28.68 77.0397 28.88 75.5464 28.88ZM91.1085 28.4V0.480024H108.149V3.44002H94.4685V12.8H107.349V15.76H94.4685V25.44H108.149V28.4H91.1085Z" fill="#616161"/>
<path d="M43.2257 28.4L40.4257 20.16H29.1457L26.3457 28.4H22.9457L32.7057 0.480024H36.9857L46.7457 28.4H43.2257ZM34.8657 3.60002H34.6657L29.9457 17.2H39.5857L34.8657 3.60002ZM50.2107 28.4V25.6H54.1307V3.28002H50.2107V0.480024H61.4107V3.28002H57.4907V25.6H61.4107V28.4H50.2107Z" fill="#0095FF"/>
</svg>
