<svg width="24" height="24" viewBox="0 0 24 24" fill="none" xmlns="http://www.w3.org/2000/svg">
<path d="M7.59625 6.50058V5.42358C7.59625 5.01474 7.744 4.66258 8.0395 4.36708C8.335 4.07158 8.68725 3.92383 9.09625 3.92383H14.9038C15.3128 3.92383 15.665 4.07158 15.9605 4.36708C16.256 4.66258 16.4038 5.01474 16.4038 5.42358V6.50058H17.7C17.985 6.50058 18.2514 6.58008 18.4992 6.73908C18.7471 6.89808 18.9268 7.116 19.0385 7.39283L21.3307 12.6198C21.3871 12.7628 21.4294 12.9057 21.4578 13.0486C21.4859 13.1916 21.5 13.3346 21.5 13.4776V18.0006C21.5 18.4096 21.3523 18.7618 21.0568 19.0573C20.7613 19.3528 20.409 19.5006 20 19.5006H4C3.591 19.5006 3.23875 19.3528 2.94325 19.0573C2.64775 18.7618 2.5 18.4096 2.5 18.0006V13.4776C2.5 13.3346 2.51408 13.1916 2.54225 13.0486C2.57058 12.9057 2.61292 12.7628 2.66925 12.6198L4.9615 7.39283C5.07317 7.116 5.25292 6.89808 5.50075 6.73908C5.74858 6.58008 6.015 6.50058 6.3 6.50058H7.59625ZM9.09625 6.50058H14.9038V5.42358H9.09625V6.50058ZM7.25 12.3468V12.0718C7.25 11.8593 7.32192 11.6812 7.46575 11.5373C7.60958 11.3937 7.78775 11.3218 8.00025 11.3218C8.21292 11.3218 8.391 11.3937 8.5345 11.5373C8.67817 11.6812 8.75 11.8593 8.75 12.0718V12.3468H15.25V12.0718C15.25 11.8593 15.3219 11.6812 15.4658 11.5373C15.6096 11.3937 15.7878 11.3218 16.0003 11.3218C16.2129 11.3218 16.391 11.3937 16.5345 11.5373C16.6782 11.6812 16.75 11.8593 16.75 12.0718V12.3468H19.573L17.7 8.00058H6.3L4.427 12.3468H7.25ZM7.25 13.8468H4V18.0006H20V13.8468H16.75V14.1218C16.75 14.3343 16.6781 14.5124 16.5343 14.6561C16.3904 14.7999 16.2122 14.8718 15.9998 14.8718C15.7871 14.8718 15.609 14.7999 15.4655 14.6561C15.3218 14.5124 15.25 14.3343 15.25 14.1218V13.8468H8.75V14.1218C8.75 14.3343 8.67808 14.5124 8.53425 14.6561C8.39042 14.7999 8.21225 14.8718 7.99975 14.8718C7.78708 14.8718 7.609 14.7999 7.4655 14.6561C7.32183 14.5124 7.25 14.3343 7.25 14.1218V13.8468Z" fill="white"/>
</svg>
