<svg width="24" height="24" viewBox="0 0 24 24" fill="none" xmlns="http://www.w3.org/2000/svg">
<path d="M2.5 8.30775V6.30775C2.5 5.80258 2.675 5.375 3.025 5.025C3.375 4.675 3.80258 4.5 4.30775 4.5H19.6923C20.1974 4.5 20.625 4.675 20.975 5.025C21.325 5.375 21.5 5.80258 21.5 6.30775V11.0578C21.5 11.2706 21.4282 11.4488 21.2845 11.5923C21.141 11.7359 20.9628 11.8078 20.75 11.8078C20.5372 11.8078 20.359 11.7359 20.2155 11.5923C20.0718 11.4488 20 11.2706 20 11.0578V6.30775C20 6.23075 19.9679 6.16025 19.9038 6.09625C19.8398 6.03208 19.7693 6 19.6923 6H4.30775C4.23075 6 4.16025 6.03208 4.09625 6.09625C4.03208 6.16025 4 6.23075 4 6.30775V8.30775C4 8.52058 3.92817 8.69875 3.7845 8.84225C3.641 8.98592 3.46283 9.05775 3.25 9.05775C3.03717 9.05775 2.859 8.98592 2.7155 8.84225C2.57183 8.69875 2.5 8.52058 2.5 8.30775ZM7 16.75C6.85517 16.75 6.72183 16.717 6.6 16.651C6.47817 16.585 6.38525 16.4827 6.32125 16.3442L4.54425 12.75H3.2655C3.05267 12.75 2.87442 12.6782 2.73075 12.5345C2.58725 12.391 2.5155 12.2128 2.5155 12C2.5155 11.7872 2.58725 11.609 2.73075 11.4655C2.87442 11.3218 3.05267 11.25 3.2655 11.25H5.0155C5.15383 11.25 5.28133 11.2872 5.398 11.3615C5.51467 11.4358 5.60508 11.5372 5.66925 11.6655L7 14.3173L10.3213 7.6655C10.3853 7.54367 10.4798 7.45225 10.6048 7.39125C10.7298 7.33042 10.8615 7.3 11 7.3C11.1385 7.3 11.2686 7.33042 11.3903 7.39125C11.5121 7.45225 11.6051 7.54367 11.6692 7.6655L13.498 11.3135C13.275 11.4583 13.0597 11.6068 12.852 11.7588C12.6443 11.9106 12.4527 12.0795 12.277 12.2655L10.9905 9.69225L7.66925 16.3442C7.60508 16.4827 7.51208 16.585 7.39025 16.651C7.26858 16.717 7.1385 16.75 7 16.75ZM4.30775 19.5C3.80258 19.5 3.375 19.325 3.025 18.975C2.675 18.625 2.5 18.1974 2.5 17.6923V15.6923C2.5 15.4794 2.57183 15.3013 2.7155 15.1578C2.859 15.0141 3.03717 14.9423 3.25 14.9423C3.46283 14.9423 3.641 15.0141 3.7845 15.1578C3.92817 15.3013 4 15.4794 4 15.6923V17.6923C4 17.7692 4.03208 17.8398 4.09625 17.9038C4.16025 17.9679 4.23075 18 4.30775 18H9.84625C10.0591 18 10.2373 18.0718 10.3808 18.2155C10.5244 18.359 10.5963 18.5372 10.5963 18.75C10.5963 18.9628 10.5244 19.141 10.3808 19.2845C10.2373 19.4282 10.0591 19.5 9.84625 19.5H4.30775ZM17 21.5C15.7513 21.5 14.6892 21.0622 13.8135 20.1865C12.9378 19.3108 12.5 18.2487 12.5 17C12.5 15.7513 12.9378 14.6892 13.8135 13.8135C14.6892 12.9378 15.7513 12.5 17 12.5C18.2487 12.5 19.3108 12.9378 20.1865 13.8135C21.0622 14.6892 21.5 15.7513 21.5 17C21.5 18.2487 21.0622 19.3108 20.1865 20.1865C19.3108 21.0622 18.2487 21.5 17 21.5ZM18.9902 15.6328C19.0776 15.5456 19.1228 15.4433 19.126 15.326C19.1292 15.2087 19.0839 15.1033 18.9902 15.0098C18.9031 14.9224 18.7993 14.8787 18.6788 14.8787C18.5583 14.8787 18.4544 14.9224 18.3673 15.0098L16.8885 16.473C16.8013 16.5602 16.7562 16.665 16.753 16.7875C16.7497 16.91 16.7948 17.018 16.8885 17.1115C16.9757 17.1987 17.0821 17.2423 17.2078 17.2423C17.3334 17.2423 17.4398 17.1987 17.527 17.1115L18.9902 15.6328Z" fill="#0F62FE"/>
</svg>
