<svg width="24" height="24" viewBox="0 0 24 24" fill="none" xmlns="http://www.w3.org/2000/svg">
<path d="M7.75 13.4423V14C7.75 14.1722 7.80625 14.3146 7.91875 14.4272C8.03125 14.5398 8.17358 14.596 8.34575 14.596C8.51775 14.596 8.66017 14.5398 8.773 14.4272C8.88583 14.3146 8.94225 14.1722 8.94225 14V11.6923C8.94225 11.5201 8.886 11.3777 8.7735 11.265C8.661 11.1525 8.51867 11.0962 8.3465 11.0962C8.1745 11.0962 8.03208 11.1525 7.91925 11.265C7.80642 11.3777 7.75 11.5201 7.75 11.6923V12.25H6.84625C6.67392 12.25 6.5315 12.3063 6.419 12.4187C6.30633 12.5312 6.25 12.6736 6.25 12.8457C6.25 13.0177 6.30633 13.1602 6.419 13.273C6.5315 13.3858 6.67392 13.4423 6.84625 13.4423H7.75ZM10.5385 13.4423H17.1538C17.3261 13.4423 17.4685 13.386 17.581 13.2735C17.6937 13.161 17.75 13.0187 17.75 12.8465C17.75 12.6745 17.6937 12.5321 17.581 12.4192C17.4685 12.3064 17.3261 12.25 17.1538 12.25H10.5385C10.3662 12.25 10.2238 12.3063 10.1113 12.4187C9.99858 12.5312 9.94225 12.6736 9.94225 12.8457C9.94225 13.0177 9.99858 13.1602 10.1113 13.273C10.2238 13.3858 10.3662 13.4423 10.5385 13.4423ZM16.25 9.75H17.1538C17.3261 9.75 17.4685 9.69375 17.581 9.58125C17.6937 9.46875 17.75 9.32642 17.75 9.15425C17.75 8.98225 17.6937 8.83983 17.581 8.727C17.4685 8.61417 17.3261 8.55775 17.1538 8.55775H16.25V8C16.25 7.82783 16.1938 7.68542 16.0813 7.57275C15.9688 7.46025 15.8264 7.404 15.6543 7.404C15.4823 7.404 15.3398 7.46025 15.227 7.57275C15.1142 7.68542 15.0577 7.82783 15.0577 8V10.3078C15.0577 10.4799 15.114 10.6223 15.2265 10.735C15.339 10.8475 15.4813 10.9038 15.6535 10.9038C15.8255 10.9038 15.9679 10.8475 16.0807 10.735C16.1936 10.6223 16.25 10.4799 16.25 10.3078V9.75ZM6.84625 9.75H13.4615C13.6338 9.75 13.7762 9.69375 13.8888 9.58125C14.0014 9.46875 14.0577 9.32642 14.0577 9.15425C14.0577 8.98225 14.0014 8.83983 13.8888 8.727C13.7762 8.61417 13.6338 8.55775 13.4615 8.55775H6.84625C6.67392 8.55775 6.5315 8.614 6.419 8.7265C6.30633 8.839 6.25 8.98133 6.25 9.1535C6.25 9.3255 6.30633 9.46792 6.419 9.58075C6.5315 9.69358 6.67392 9.75 6.84625 9.75ZM4.30775 18.5C3.80258 18.5 3.375 18.325 3.025 17.975C2.675 17.625 2.5 17.1974 2.5 16.6923V5.30775C2.5 4.80258 2.675 4.375 3.025 4.025C3.375 3.675 3.80258 3.5 4.30775 3.5H19.6923C20.1974 3.5 20.625 3.675 20.975 4.025C21.325 4.375 21.5 4.80258 21.5 5.30775V16.6923C21.5 17.1974 21.325 17.625 20.975 17.975C20.625 18.325 20.1974 18.5 19.6923 18.5H15.5V19.596C15.5 19.8522 15.4133 20.0668 15.24 20.24C15.0668 20.4133 14.8522 20.5 14.596 20.5H9.404C9.14783 20.5 8.93317 20.4133 8.76 20.24C8.58667 20.0668 8.5 19.8522 8.5 19.596V18.5H4.30775ZM4.30775 17H19.6923C19.7693 17 19.8398 16.9679 19.9038 16.9038C19.9679 16.8398 20 16.7692 20 16.6923V5.30775C20 5.23075 19.9679 5.16025 19.9038 5.09625C19.8398 5.03208 19.7693 5 19.6923 5H4.30775C4.23075 5 4.16025 5.03208 4.09625 5.09625C4.03208 5.16025 4 5.23075 4 5.30775V16.6923C4 16.7692 4.03208 16.8398 4.09625 16.9038C4.16025 16.9679 4.23075 17 4.30775 17Z" fill="#0F62FE"/>
</svg>
