<svg width="24" height="24" viewBox="0 0 24 24" fill="none" xmlns="http://www.w3.org/2000/svg">
<path d="M4.5 19.0008V10.1546C4.5 9.86843 4.564 9.59734 4.692 9.34134C4.82017 9.08518 4.99717 8.87426 5.223 8.70859L10.9155 4.42009C11.2313 4.17909 11.5923 4.05859 11.9985 4.05859C12.4047 4.05859 12.7667 4.17909 13.0845 4.42009L18.777 8.70859C19.0028 8.87426 19.1798 9.08518 19.308 9.34134C19.436 9.59734 19.5 9.86843 19.5 10.1546V19.0008C19.5 19.4098 19.3523 19.7621 19.0568 20.0576C18.7613 20.3531 18.409 20.5008 18 20.5008H14.8077C14.5516 20.5008 14.3369 20.4142 14.1637 20.2408C13.9904 20.0677 13.9038 19.853 13.9038 19.5968V14.7123C13.9038 14.4563 13.8172 14.2417 13.644 14.0683C13.4708 13.8952 13.2562 13.8086 13 13.8086H11C10.7438 13.8086 10.5292 13.8952 10.356 14.0683C10.1828 14.2417 10.0963 14.4563 10.0963 14.7123V19.5968C10.0963 19.853 10.0096 20.0677 9.83625 20.2408C9.66308 20.4142 9.44842 20.5008 9.19225 20.5008H6C5.591 20.5008 5.23875 20.3531 4.94325 20.0576C4.64775 19.7621 4.5 19.4098 4.5 19.0008Z" fill="#0F62FE"/>
</svg>
