<svg width="24" height="24" viewBox="0 0 24 24" fill="none" xmlns="http://www.w3.org/2000/svg">
<path d="M2.49806 9.48096V5.53871C2.49806 5.03354 2.67306 4.60596 3.02306 4.25596C3.37306 3.90596 3.80065 3.73096 4.30581 3.73096H19.6903C20.1955 3.73096 20.6231 3.90596 20.9731 4.25596C21.3231 4.60596 21.4981 5.03354 21.4981 5.53871V9.48096H19.9981V5.53871C19.9981 5.46171 19.966 5.39121 19.9018 5.32721C19.8378 5.26304 19.7673 5.23096 19.6903 5.23096H4.30581C4.22881 5.23096 4.15831 5.26304 4.09431 5.32721C4.03015 5.39121 3.99806 5.46171 3.99806 5.53871V9.48096H2.49806ZM4.30581 17.731C3.80065 17.731 3.37306 17.556 3.02306 17.206C2.67306 16.856 2.49806 16.4284 2.49806 15.9232V10.981H3.99806V15.9232C3.99806 16.0002 4.03015 16.0708 4.09431 16.135C4.15831 16.199 4.22881 16.231 4.30581 16.231H19.6903C19.7673 16.231 19.8378 16.199 19.9018 16.135C19.966 16.0708 19.9981 16.0002 19.9981 15.9232V10.981H21.4981V15.9232C21.4981 16.4284 21.3231 16.856 20.9731 17.206C20.6231 17.556 20.1955 17.731 19.6903 17.731H4.30581ZM2.13281 20.231C1.91998 20.231 1.74173 20.1591 1.59806 20.0155C1.45456 19.872 1.38281 19.6938 1.38281 19.481C1.38281 19.2681 1.45456 19.09 1.59806 18.9465C1.74173 18.8028 1.91998 18.731 2.13281 18.731H21.8633C22.0761 18.731 22.2544 18.8028 22.3981 18.9465C22.5416 19.09 22.6133 19.2681 22.6133 19.481C22.6133 19.6938 22.5416 19.872 22.3981 20.0155C22.2544 20.1591 22.0761 20.231 21.8633 20.231H2.13281ZM2.49806 10.981V9.48096H7.99806C8.13656 9.48096 8.26831 9.51812 8.39331 9.59246C8.51831 9.66696 8.61281 9.76829 8.67681 9.89646L10.0731 12.6735L13.3501 6.86571C13.4141 6.74771 13.5035 6.65729 13.6183 6.59446C13.733 6.53162 13.8596 6.50021 13.9981 6.50021C14.1366 6.50021 14.2683 6.53162 14.3933 6.59446C14.5183 6.65729 14.6128 6.75796 14.6768 6.89646L15.9693 9.48096H21.4981V10.981H15.5943C15.4301 10.981 15.2727 10.9384 15.1221 10.8532C14.9714 10.7679 14.8576 10.6431 14.7808 10.479L13.9481 8.80796L10.6616 14.5965C10.5974 14.7246 10.5028 14.8207 10.3778 14.8847C10.2528 14.9489 10.1211 14.981 9.98256 14.981C9.84423 14.981 9.71515 14.9438 9.59531 14.8695C9.47531 14.7951 9.38331 14.6939 9.31931 14.5657L7.52681 10.981H2.49806Z" fill="white"/>
</svg>
