<svg width="24" height="24" viewBox="0 0 24 24" fill="none" xmlns="http://www.w3.org/2000/svg">
<path d="M2.50002 9.48047V5.53822C2.50002 5.03305 2.67502 4.60547 3.02502 4.25547C3.37502 3.90547 3.8026 3.73047 4.30777 3.73047H19.6923C20.1974 3.73047 20.625 3.90547 20.975 4.25547C21.325 4.60547 21.5 5.03305 21.5 5.53822V9.48047H20V5.53822C20 5.46122 19.9679 5.39072 19.9038 5.32672C19.8398 5.26255 19.7693 5.23047 19.6923 5.23047H4.30777C4.23077 5.23047 4.16027 5.26255 4.09627 5.32672C4.0321 5.39072 4.00002 5.46122 4.00002 5.53822V9.48047H2.50002ZM4.30777 17.7305C3.8026 17.7305 3.37502 17.5555 3.02502 17.2055C2.67502 16.8555 2.50002 16.4279 2.50002 15.9227V10.9805H4.00002V15.9227C4.00002 15.9997 4.0321 16.0703 4.09627 16.1345C4.16027 16.1985 4.23077 16.2305 4.30777 16.2305H19.6923C19.7693 16.2305 19.8398 16.1985 19.9038 16.1345C19.9679 16.0703 20 15.9997 20 15.9227V10.9805H21.5V15.9227C21.5 16.4279 21.325 16.8555 20.975 17.2055C20.625 17.5555 20.1974 17.7305 19.6923 17.7305H4.30777ZM2.13477 20.2305C1.92193 20.2305 1.74368 20.1586 1.60002 20.015C1.45652 19.8715 1.38477 19.6933 1.38477 19.4805C1.38477 19.2676 1.45652 19.0895 1.60002 18.946C1.74368 18.8023 1.92193 18.7305 2.13477 18.7305H21.8653C22.0781 18.7305 22.2563 18.8023 22.4 18.946C22.5435 19.0895 22.6153 19.2676 22.6153 19.4805C22.6153 19.6933 22.5435 19.8715 22.4 20.015C22.2563 20.1586 22.0781 20.2305 21.8653 20.2305H2.13477ZM2.50002 10.9805V9.48047H8.00002C8.13852 9.48047 8.27027 9.51764 8.39527 9.59197C8.52027 9.66647 8.61477 9.7678 8.67877 9.89597L10.075 12.673L13.352 6.86522C13.416 6.74722 13.5054 6.6568 13.6203 6.59397C13.7349 6.53114 13.8615 6.49972 14 6.49972C14.1385 6.49972 14.2703 6.53114 14.3953 6.59397C14.5203 6.6568 14.6148 6.75747 14.6788 6.89597L15.9713 9.48047H21.5V10.9805H15.5963C15.4321 10.9805 15.2747 10.9379 15.124 10.8527C14.9733 10.7674 14.8596 10.6426 14.7828 10.4785L13.95 8.80747L10.6635 14.596C10.5993 14.7241 10.5048 14.8202 10.3798 14.8842C10.2548 14.9484 10.123 14.9805 9.98452 14.9805C9.84618 14.9805 9.7171 14.9433 9.59727 14.869C9.47727 14.7946 9.38527 14.6934 9.32127 14.5652L7.52877 10.9805H2.50002Z" fill="#0F62FE"/>
</svg>
