<svg width="24" height="24" viewBox="0 0 24 24" fill="none" xmlns="http://www.w3.org/2000/svg">
<path d="M4 19.5001C3.591 19.5001 3.23875 19.3523 2.94325 19.0568C2.64775 18.7613 2.5 18.4091 2.5 18.0001V13.8463H7.25V14.0963C7.25 14.3092 7.32183 14.4873 7.4655 14.6308C7.609 14.7745 7.78717 14.8463 8 14.8463C8.2025 14.8463 8.34992 14.7591 8.44225 14.5846C8.53458 14.4103 8.63717 14.2475 8.75 14.0963V13.8463H15.25V14.0963C15.25 14.3092 15.3218 14.4873 15.4655 14.6308C15.609 14.7745 15.7872 14.8463 16 14.8463C16.2025 14.8463 16.3499 14.7591 16.4423 14.5846C16.5346 14.4103 16.6372 14.2475 16.75 14.0963V13.8463H21.5V18.0001C21.5 18.4091 21.3523 18.7613 21.0568 19.0568C20.7613 19.3523 20.409 19.5001 20 19.5001H4ZM2.8 12.3463L4.9615 7.39234C5.07317 7.11551 5.25233 6.89759 5.499 6.73859C5.74583 6.57959 6.01283 6.50009 6.3 6.50009H7.59625V5.42309C7.59625 5.01426 7.744 4.66209 8.0395 4.36659C8.335 4.07109 8.68725 3.92334 9.09625 3.92334H14.9038C15.3128 3.92334 15.665 4.07109 15.9605 4.36659C16.256 4.66209 16.4038 5.01426 16.4038 5.42309V6.50009H17.7C17.9872 6.50009 18.2542 6.57959 18.501 6.73859C18.7477 6.89759 18.9268 7.11551 19.0385 7.39234L21.2 12.3463H16.75V12.0963C16.75 11.8835 16.6782 11.7053 16.5345 11.5616C16.391 11.4181 16.2128 11.3463 16 11.3463C15.7975 11.3463 15.6501 11.4335 15.5577 11.6078C15.4654 11.7822 15.3628 11.945 15.25 12.0963V12.3463H8.75V12.0963C8.75 11.8835 8.67817 11.7053 8.5345 11.5616C8.391 11.4181 8.21283 11.3463 8 11.3463C7.7975 11.3463 7.65008 11.4335 7.55775 11.6078C7.46542 11.7822 7.36283 11.945 7.25 12.0963V12.3463H2.8ZM9.09625 6.50009H14.9038V5.42309H9.09625V6.50009Z" fill="#0F62FE"/>
</svg>
