<svg width="24" height="24" viewBox="0 0 24 24" fill="none" xmlns="http://www.w3.org/2000/svg">
<path d="M7.59625 6.49863V5.42162C7.59625 5.01279 7.744 4.66062 8.0395 4.36512C8.335 4.06962 8.68725 3.92188 9.09625 3.92188H14.9038C15.3128 3.92188 15.665 4.06962 15.9605 4.36512C16.256 4.66062 16.4038 5.01279 16.4038 5.42162V6.49863H17.7C17.985 6.49863 18.2514 6.57812 18.4992 6.73712C18.7471 6.89612 18.9268 7.11404 19.0385 7.39088L21.3307 12.6179C21.3871 12.7609 21.4294 12.9038 21.4578 13.0466C21.4859 13.1896 21.5 13.3326 21.5 13.4756V17.9986C21.5 18.4076 21.3523 18.7599 21.0568 19.0554C20.7613 19.3509 20.409 19.4986 20 19.4986H4C3.591 19.4986 3.23875 19.3509 2.94325 19.0554C2.64775 18.7599 2.5 18.4076 2.5 17.9986V13.4756C2.5 13.3326 2.51408 13.1896 2.54225 13.0466C2.57058 12.9038 2.61292 12.7609 2.66925 12.6179L4.9615 7.39088C5.07317 7.11404 5.25292 6.89612 5.50075 6.73712C5.74858 6.57812 6.015 6.49863 6.3 6.49863H7.59625ZM9.09625 6.49863H14.9038V5.42162H9.09625V6.49863ZM7.25 12.3449V12.0699C7.25 11.8574 7.32192 11.6792 7.46575 11.5354C7.60958 11.3917 7.78775 11.3199 8.00025 11.3199C8.21292 11.3199 8.391 11.3917 8.5345 11.5354C8.67817 11.6792 8.75 11.8574 8.75 12.0699V12.3449H15.25V12.0699C15.25 11.8574 15.3219 11.6792 15.4658 11.5354C15.6096 11.3917 15.7878 11.3199 16.0003 11.3199C16.2129 11.3199 16.391 11.3917 16.5345 11.5354C16.6782 11.6792 16.75 11.8574 16.75 12.0699V12.3449H19.573L17.7 7.99863H6.3L4.427 12.3449H7.25ZM7.25 13.8449H4V17.9986H20V13.8449H16.75V14.1199C16.75 14.3324 16.6781 14.5105 16.5343 14.6541C16.3904 14.798 16.2122 14.8699 15.9998 14.8699C15.7871 14.8699 15.609 14.798 15.4655 14.6541C15.3218 14.5105 15.25 14.3324 15.25 14.1199V13.8449H8.75V14.1199C8.75 14.3324 8.67808 14.5105 8.53425 14.6541C8.39042 14.798 8.21225 14.8699 7.99975 14.8699C7.78708 14.8699 7.609 14.798 7.4655 14.6541C7.32183 14.5105 7.25 14.3324 7.25 14.1199V13.8449Z" fill="white"/>
</svg>
