<svg width="24" height="24" viewBox="0 0 24 24" fill="none" xmlns="http://www.w3.org/2000/svg">
<path d="M10.4037 11.3078H7.2885C7.03233 11.3078 6.81767 11.2211 6.6445 11.0477C6.47133 10.8746 6.38475 10.6599 6.38475 10.4038V7.2885C6.38475 7.03233 6.47133 6.81767 6.6445 6.6445C6.81767 6.47133 7.03233 6.38475 7.2885 6.38475H10.4037C10.6599 6.38475 10.8746 6.47133 11.0477 6.6445C11.2211 6.81767 11.3078 7.03233 11.3078 7.2885V10.4038C11.3078 10.6599 11.2211 10.8746 11.0477 11.0477C10.8746 11.2211 10.6599 11.3078 10.4037 11.3078ZM10.4037 17.6152H7.2885C7.03233 17.6152 6.81767 17.5287 6.6445 17.3555C6.47133 17.1823 6.38475 16.9677 6.38475 16.7115V13.5963C6.38475 13.3401 6.47133 13.1254 6.6445 12.9523C6.81767 12.7789 7.03233 12.6923 7.2885 12.6923H10.4037C10.6599 12.6923 10.8746 12.7789 11.0477 12.9523C11.2211 13.1254 11.3078 13.3401 11.3078 13.5963V16.7115C11.3078 16.9677 11.2211 17.1823 11.0477 17.3555C10.8746 17.5287 10.6599 17.6152 10.4037 17.6152ZM16.7115 11.3078H13.5962C13.3401 11.3078 13.1254 11.2211 12.9523 11.0477C12.7789 10.8746 12.6923 10.6599 12.6923 10.4038V7.2885C12.6923 7.03233 12.7789 6.81767 12.9523 6.6445C13.1254 6.47133 13.3401 6.38475 13.5962 6.38475H16.7115C16.9677 6.38475 17.1823 6.47133 17.3555 6.6445C17.5287 6.81767 17.6152 7.03233 17.6152 7.2885V10.4038C17.6152 10.6599 17.5287 10.8746 17.3555 11.0477C17.1823 11.2211 16.9677 11.3078 16.7115 11.3078ZM16.7115 17.6152H13.5962C13.3401 17.6152 13.1254 17.5287 12.9523 17.3555C12.7789 17.1823 12.6923 16.9677 12.6923 16.7115V13.5963C12.6923 13.3401 12.7789 13.1254 12.9523 12.9523C13.1254 12.7789 13.3401 12.6923 13.5962 12.6923H16.7115C16.9677 12.6923 17.1823 12.7789 17.3555 12.9523C17.5287 13.1254 17.6152 13.3401 17.6152 13.5963V16.7115C17.6152 16.9677 17.5287 17.1823 17.3555 17.3555C17.1823 17.5287 16.9677 17.6152 16.7115 17.6152ZM7.8845 9.80775H9.80775V7.8845H7.8845V9.80775ZM14.1923 9.80775H16.1155V7.8845H14.1923V9.80775ZM7.8845 16.1155H9.80775V14.1923H7.8845V16.1155ZM14.1923 16.1155H16.1155V14.1923H14.1923V16.1155ZM5.30775 20.5C4.80258 20.5 4.375 20.325 4.025 19.975C3.675 19.625 3.5 19.1974 3.5 18.6923V5.30775C3.5 4.80258 3.675 4.375 4.025 4.025C4.375 3.675 4.80258 3.5 5.30775 3.5H18.6923C19.1974 3.5 19.625 3.675 19.975 4.025C20.325 4.375 20.5 4.80258 20.5 5.30775V18.6923C20.5 19.1974 20.325 19.625 19.975 19.975C19.625 20.325 19.1974 20.5 18.6923 20.5H5.30775ZM5.30775 19H18.6923C18.7692 19 18.8398 18.9679 18.9038 18.9038C18.9679 18.8398 19 18.7692 19 18.6923V5.30775C19 5.23075 18.9679 5.16025 18.9038 5.09625C18.8398 5.03208 18.7692 5 18.6923 5H5.30775C5.23075 5 5.16025 5.03208 5.09625 5.09625C5.03208 5.16025 5 5.23075 5 5.30775V18.6923C5 18.7692 5.03208 18.8398 5.09625 18.9038C5.16025 18.9679 5.23075 19 5.30775 19Z" fill="#0F62FE"/>
</svg>
